<svg width="38" height="10" viewBox="0 0 26 10" fill="none" xmlns="http://www.w3.org/2000/svg">
<path d="M5.52 2.76H3.168V0.648H7.704V5.604C7.704 6.348 7.556 6.992 7.26 7.536C6.964 8.072 6.556 8.48 6.036 8.76C5.524 9.04 4.952 9.18 4.32 9.18C3.712 9.18 3.148 9.028 2.628 8.724C2.116 8.42 1.708 8.012 1.404 7.5C1.1 6.98 0.948 6.416 0.948 5.808H3.132C3.132 6.176 3.236 6.484 3.444 6.732C3.66 6.98 3.948 7.104 4.308 7.104C4.692 7.104 4.988 6.984 5.196 6.744C5.412 6.496 5.52 6.136 5.52 5.664V2.76ZM13.2628 0.912C12.7268 0.912 12.2268 1.048 11.7628 1.32C11.3068 1.584 10.9428 1.948 10.6708 2.412C10.3988 2.868 10.2628 3.368 10.2628 3.912V5.496C10.2628 6.064 10.3428 6.532 10.5028 6.9C10.7268 7.42 11.0668 7.844 11.5228 8.172C11.9788 8.5 12.4908 8.684 13.0588 8.724V4.824H16.7188V5.616C16.7188 6.128 16.6428 6.584 16.4908 6.984C16.2428 7.648 15.8268 8.18 15.2428 8.58C14.6588 8.98 13.9988 9.18 13.2628 9.18C12.5668 9.18 11.9308 8.992 11.3548 8.616C10.7868 8.232 10.3708 7.724 10.1068 7.092C9.91481 6.644 9.81881 6.112 9.81881 5.496V3.912C9.81881 3.288 9.97081 2.712 10.2748 2.184C10.5868 1.656 11.0068 1.24 11.5348 0.935999C12.0628 0.624 12.6388 0.468 13.2628 0.468C13.7828 0.468 14.2588 0.556 14.6908 0.732C15.1228 0.9 15.4908 1.148 15.7948 1.476C16.0428 1.748 16.2428 2.052 16.3948 2.388C16.5548 2.724 16.6348 3.064 16.6348 3.408H16.2028C16.1948 3.112 16.1188 2.82 15.9748 2.532C15.8388 2.244 15.6628 1.984 15.4468 1.752C14.9108 1.192 14.1828 0.912 13.2628 0.912ZM16.2748 5.256H13.4908V8.724C14.0668 8.684 14.5828 8.504 15.0388 8.184C15.5028 7.856 15.8428 7.424 16.0588 6.888C16.2028 6.512 16.2748 6.088 16.2748 5.616V5.256ZM22.2656 9.216C21.1056 9.216 20.2096 8.944 19.5776 8.4C18.9536 7.848 18.6456 7.024 18.6536 5.928H20.6096C20.6016 6.384 20.7376 6.732 21.0176 6.972C21.2976 7.212 21.6896 7.332 22.1936 7.332C22.6096 7.332 22.9376 7.264 23.1776 7.128C23.4176 6.992 23.5376 6.784 23.5376 6.504C23.5376 6.272 23.4136 6.104 23.1656 6C22.9256 5.896 22.6856 5.824 22.4456 5.784C22.2056 5.736 22.0576 5.708 22.0016 5.7C21.3856 5.58 20.8536 5.436 20.4056 5.268C19.9576 5.092 19.5816 4.828 19.2776 4.476C18.9736 4.124 18.8216 3.66 18.8216 3.084C18.8216 2.508 18.9736 2.02 19.2776 1.62C19.5816 1.212 19.9856 0.908 20.4896 0.707999C21.0016 0.508 21.5576 0.408 22.1576 0.408C22.8856 0.408 23.5136 0.544 24.0416 0.816C24.5776 1.088 24.9976 1.5 25.3016 2.052C25.4536 2.316 25.5456 2.572 25.5776 2.82C25.6096 3.06 25.6256 3.296 25.6256 3.528H23.6696C23.6696 3.096 23.5536 2.78 23.3216 2.58C23.0896 2.372 22.7296 2.268 22.2416 2.268C21.8496 2.268 21.5456 2.336 21.3296 2.472C21.1136 2.608 21.0056 2.792 21.0056 3.024C21.0056 3.28 21.1496 3.468 21.4376 3.588C21.7256 3.708 22.0896 3.816 22.5296 3.912C23.2496 4.056 23.8096 4.196 24.2096 4.332C24.6176 4.46 24.9696 4.692 25.2656 5.028C25.5616 5.364 25.7096 5.836 25.7096 6.444C25.7096 7.02 25.5496 7.516 25.2296 7.932C24.9096 8.348 24.4856 8.668 23.9576 8.892C23.4376 9.108 22.8736 9.216 22.2656 9.216Z" fill="white"/>
</svg>
