<svg width="115" height="10" viewBox="0 0 115 10" fill="none" xmlns="http://www.w3.org/2000/svg">
<path d="M5.52 2.76H3.168V0.648H7.704V5.604C7.704 6.348 7.556 6.992 7.26 7.536C6.964 8.072 6.556 8.48 6.036 8.76C5.524 9.04 4.952 9.18 4.32 9.18C3.712 9.18 3.148 9.028 2.628 8.724C2.116 8.42 1.708 8.012 1.404 7.5C1.1 6.98 0.948 6.416 0.948 5.808H3.132C3.132 6.176 3.236 6.484 3.444 6.732C3.66 6.98 3.948 7.104 4.308 7.104C4.692 7.104 4.988 6.984 5.196 6.744C5.412 6.496 5.52 6.136 5.52 5.664V2.76ZM9.95081 0.648H10.3948V5.808C10.3948 6.336 10.5268 6.824 10.7908 7.272C11.0548 7.72 11.4108 8.076 11.8588 8.34C12.3068 8.604 12.7948 8.736 13.3228 8.736C13.8508 8.736 14.3388 8.604 14.7868 8.34C15.2348 8.076 15.5908 7.72 15.8548 7.272C16.1188 6.824 16.2508 6.336 16.2508 5.808V0.648H16.6948V5.808C16.6948 6.416 16.5428 6.98 16.2388 7.5C15.9348 8.012 15.5228 8.42 15.0028 8.724C14.4908 9.028 13.9308 9.18 13.3228 9.18C12.7148 9.18 12.1508 9.028 11.6308 8.724C11.1188 8.42 10.7108 8.012 10.4068 7.5C10.1028 6.98 9.95081 6.416 9.95081 5.808V0.648ZM22.3856 5.004C21.7056 4.868 21.1496 4.72 20.7176 4.56C20.2936 4.392 19.9576 4.168 19.7096 3.888C19.4696 3.6 19.3496 3.232 19.3496 2.784C19.3496 2.32 19.4696 1.912 19.7096 1.56C19.9576 1.208 20.3016 0.936 20.7416 0.744C21.1896 0.552 21.7056 0.456 22.2896 0.456C22.8496 0.456 23.3616 0.576 23.8256 0.816C24.2976 1.048 24.6696 1.376 24.9416 1.8C25.2136 2.224 25.3496 2.708 25.3496 3.252H24.9056C24.9056 2.78 24.7896 2.364 24.5576 2.004C24.3256 1.644 24.0096 1.368 23.6096 1.176C23.2096 0.976 22.7656 0.875999 22.2776 0.875999C21.8456 0.875999 21.4416 0.944 21.0656 1.08C20.6896 1.216 20.3816 1.424 20.1416 1.704C19.9096 1.984 19.7936 2.336 19.7936 2.76C19.7936 3.144 19.9056 3.452 20.1296 3.684C20.3536 3.908 20.6456 4.08 21.0056 4.2C21.3656 4.32 21.8696 4.448 22.5176 4.584C23.1736 4.72 23.6816 4.852 24.0416 4.98C24.4096 5.1 24.7176 5.304 24.9656 5.592C25.2216 5.88 25.3496 6.284 25.3496 6.804C25.3496 7.324 25.2096 7.764 24.9296 8.124C24.6576 8.476 24.2936 8.74 23.8376 8.916C23.3816 9.092 22.8856 9.18 22.3496 9.18C21.6856 9.18 21.1016 9.056 20.5976 8.808C20.0936 8.56 19.7056 8.212 19.4336 7.764C19.1696 7.308 19.0376 6.788 19.0376 6.204H19.4816C19.4816 6.716 19.5936 7.164 19.8176 7.548C20.0496 7.932 20.3816 8.232 20.8136 8.448C21.2456 8.656 21.7576 8.76 22.3496 8.76C23.0856 8.76 23.6936 8.584 24.1736 8.232C24.6616 7.88 24.9056 7.4 24.9056 6.792C24.9056 6.376 24.8016 6.056 24.5936 5.832C24.3856 5.608 24.1216 5.448 23.8016 5.352C23.4896 5.248 23.0176 5.132 22.3856 5.004ZM34.4604 0.648V1.092H31.3044V9H30.8724V1.092H27.7164V0.648H34.4604ZM39.9113 0.912C39.3753 0.912 38.8753 1.048 38.4113 1.32C37.9553 1.584 37.5913 1.948 37.3193 2.412C37.0473 2.868 36.9113 3.368 36.9113 3.912V5.496C36.9113 6.064 36.9913 6.532 37.1513 6.9C37.3753 7.42 37.7153 7.844 38.1713 8.172C38.6273 8.5 39.1393 8.684 39.7073 8.724V4.824H43.3673V5.616C43.3673 6.128 43.2913 6.584 43.1393 6.984C42.8913 7.648 42.4753 8.18 41.8913 8.58C41.3073 8.98 40.6473 9.18 39.9113 9.18C39.2153 9.18 38.5793 8.992 38.0033 8.616C37.4353 8.232 37.0193 7.724 36.7553 7.092C36.5633 6.644 36.4673 6.112 36.4673 5.496V3.912C36.4673 3.288 36.6193 2.712 36.9233 2.184C37.2353 1.656 37.6553 1.24 38.1833 0.935999C38.7113 0.624 39.2873 0.468 39.9113 0.468C40.4313 0.468 40.9073 0.556 41.3393 0.732C41.7713 0.9 42.1393 1.148 42.4433 1.476C42.6913 1.748 42.8913 2.052 43.0433 2.388C43.2033 2.724 43.2833 3.064 43.2833 3.408H42.8513C42.8433 3.112 42.7673 2.82 42.6233 2.532C42.4873 2.244 42.3113 1.984 42.0953 1.752C41.5593 1.192 40.8313 0.912 39.9113 0.912ZM42.9233 5.256H40.1393V8.724C40.7153 8.684 41.2313 8.504 41.6873 8.184C42.1513 7.856 42.4913 7.424 42.7073 6.888C42.8513 6.512 42.9233 6.088 42.9233 5.616V5.256ZM48.8541 0.468C49.4781 0.468 50.0541 0.624 50.5821 0.935999C51.1101 1.24 51.5261 1.656 51.8301 2.184C52.1421 2.712 52.2981 3.288 52.2981 3.912V5.736C52.2981 6.36 52.1421 6.936 51.8301 7.464C51.5261 7.992 51.1101 8.412 50.5821 8.724C50.0541 9.028 49.4781 9.18 48.8541 9.18C48.2301 9.18 47.6541 9.028 47.1261 8.724C46.5981 8.412 46.1781 7.992 45.8661 7.464C45.5621 6.936 45.4101 6.36 45.4101 5.736V3.912C45.4101 3.288 45.5621 2.712 45.8661 2.184C46.1781 1.656 46.5981 1.24 47.1261 0.935999C47.6541 0.624 48.2301 0.468 48.8541 0.468ZM45.8541 5.736C45.8541 6.28 45.9861 6.784 46.2501 7.248C46.5221 7.704 46.8861 8.068 47.3421 8.34C47.8061 8.604 48.3101 8.736 48.8541 8.736C49.3981 8.736 49.8981 8.604 50.3541 8.34C50.8181 8.068 51.1821 7.704 51.4461 7.248C51.7181 6.784 51.8541 6.28 51.8541 5.736V3.912C51.8541 3.368 51.7181 2.868 51.4461 2.412C51.1821 1.948 50.8181 1.584 50.3541 1.32C49.8981 1.048 49.3981 0.912 48.8541 0.912C48.3101 0.912 47.8061 1.048 47.3421 1.32C46.8861 1.584 46.5221 1.948 46.2501 2.412C45.9861 2.868 45.8541 3.368 45.8541 3.912V5.736ZM57.7369 0.468C58.3609 0.468 58.9369 0.624 59.4649 0.935999C59.9929 1.24 60.4089 1.656 60.7129 2.184C61.0249 2.712 61.1809 3.288 61.1809 3.912V5.736C61.1809 6.36 61.0249 6.936 60.7129 7.464C60.4089 7.992 59.9929 8.412 59.4649 8.724C58.9369 9.028 58.3609 9.18 57.7369 9.18C57.1129 9.18 56.5369 9.028 56.0089 8.724C55.4809 8.412 55.0609 7.992 54.7489 7.464C54.4449 6.936 54.2929 6.36 54.2929 5.736V3.912C54.2929 3.288 54.4449 2.712 54.7489 2.184C55.0609 1.656 55.4809 1.24 56.0089 0.935999C56.5369 0.624 57.1129 0.468 57.7369 0.468ZM54.7369 5.736C54.7369 6.28 54.8689 6.784 55.1329 7.248C55.4049 7.704 55.7689 8.068 56.2249 8.34C56.6889 8.604 57.1929 8.736 57.7369 8.736C58.2809 8.736 58.7809 8.604 59.2369 8.34C59.7009 8.068 60.0649 7.704 60.3289 7.248C60.6009 6.784 60.7369 6.28 60.7369 5.736V3.912C60.7369 3.368 60.6009 2.868 60.3289 2.412C60.0649 1.948 59.7009 1.584 59.2369 1.32C58.7809 1.048 58.2809 0.912 57.7369 0.912C57.1929 0.912 56.6889 1.048 56.2249 1.32C55.7689 1.584 55.4049 1.948 55.1329 2.412C54.8689 2.868 54.7369 3.368 54.7369 3.912V5.736ZM66.5357 0.648C67.1437 0.648 67.7037 0.799999 68.2157 1.104C68.7357 1.408 69.1477 1.82 69.4517 2.34C69.7557 2.852 69.9077 3.412 69.9077 4.02V5.628C69.9077 6.236 69.7557 6.8 69.4517 7.32C69.1477 7.832 68.7357 8.24 68.2157 8.544C67.7037 8.848 67.1437 9 66.5357 9H63.4517V0.648H66.5357ZM69.4637 4.02C69.4637 3.492 69.3317 3.004 69.0677 2.556C68.8037 2.108 68.4437 1.752 67.9877 1.488C67.5397 1.224 67.0517 1.092 66.5237 1.092H63.8957V8.556H66.5237C67.0517 8.556 67.5397 8.424 67.9877 8.16C68.4437 7.896 68.8037 7.54 69.0677 7.092C69.3317 6.644 69.4637 6.156 69.4637 5.628V4.02ZM75.5625 9.216C74.4025 9.216 73.5065 8.944 72.8745 8.4C72.2505 7.848 71.9425 7.024 71.9505 5.928H73.9065C73.8985 6.384 74.0345 6.732 74.3145 6.972C74.5945 7.212 74.9865 7.332 75.4905 7.332C75.9065 7.332 76.2345 7.264 76.4745 7.128C76.7145 6.992 76.8345 6.784 76.8345 6.504C76.8345 6.272 76.7105 6.104 76.4625 6C76.2225 5.896 75.9825 5.824 75.7425 5.784C75.5025 5.736 75.3545 5.708 75.2985 5.7C74.6825 5.58 74.1505 5.436 73.7025 5.268C73.2545 5.092 72.8785 4.828 72.5745 4.476C72.2705 4.124 72.1185 3.66 72.1185 3.084C72.1185 2.508 72.2705 2.02 72.5745 1.62C72.8785 1.212 73.2825 0.908 73.7865 0.707999C74.2985 0.508 74.8545 0.408 75.4545 0.408C76.1825 0.408 76.8105 0.544 77.3385 0.816C77.8745 1.088 78.2945 1.5 78.5985 2.052C78.7505 2.316 78.8425 2.572 78.8745 2.82C78.9065 3.06 78.9225 3.296 78.9225 3.528H76.9665C76.9665 3.096 76.8505 2.78 76.6185 2.58C76.3865 2.372 76.0265 2.268 75.5385 2.268C75.1465 2.268 74.8425 2.336 74.6265 2.472C74.4105 2.608 74.3025 2.792 74.3025 3.024C74.3025 3.28 74.4465 3.468 74.7345 3.588C75.0225 3.708 75.3865 3.816 75.8265 3.912C76.5465 4.056 77.1065 4.196 77.5065 4.332C77.9145 4.46 78.2665 4.692 78.5625 5.028C78.8585 5.364 79.0065 5.836 79.0065 6.444C79.0065 7.02 78.8465 7.516 78.5265 7.932C78.2065 8.348 77.7825 8.668 77.2545 8.892C76.7345 9.108 76.1705 9.216 75.5625 9.216ZM87.7573 0.648V1.092H84.6013V9H84.1693V1.092H81.0133V0.648H87.7573ZM89.8961 0.648H90.3401V5.808C90.3401 6.336 90.4721 6.824 90.7361 7.272C91.0001 7.72 91.3561 8.076 91.8041 8.34C92.2521 8.604 92.7401 8.736 93.2681 8.736C93.7961 8.736 94.2841 8.604 94.7321 8.34C95.1801 8.076 95.5361 7.72 95.8001 7.272C96.0641 6.824 96.1961 6.336 96.1961 5.808V0.648H96.6401V5.808C96.6401 6.416 96.4881 6.98 96.1841 7.5C95.8801 8.012 95.4681 8.42 94.9481 8.724C94.4361 9.028 93.8761 9.18 93.2681 9.18C92.6601 9.18 92.0961 9.028 91.5761 8.724C91.0641 8.42 90.6561 8.012 90.3521 7.5C90.0481 6.98 89.8961 6.416 89.8961 5.808V0.648ZM99.3789 0.648H105.607V1.092H99.8229V4.596H104.503V5.04H99.8229V9H99.3789V0.648ZM108.262 0.648H114.49V1.092H108.706V4.596H113.386V5.04H108.706V9H108.262V0.648Z" fill="white"/>
</svg>
